<?xml version="1.0" encoding="utf-8"?>
<!-- Generator: Adobe Illustrator 23.0.2, SVG Export Plug-In . SVG Version: 6.00 Build 0)  -->
<svg version="1.1" id="Слой_1" xmlns="http://www.w3.org/2000/svg" xmlns:xlink="http://www.w3.org/1999/xlink" x="0px" y="0px"
	 viewBox="0 0 20 20" style="enable-background:new 0 0 20 20;" xml:space="preserve">
<style type="text/css">
	.st0{fill-rule:evenodd;clip-rule:evenodd;fill:#9B9B9B;}
</style>
<path class="st0" d="M16,17.9L16,17.9L15.9,18c-1.7,1.2-3.7,2-5.9,2 M10,20c-2.2,0-4.2-0.8-5.9-2H4v-0.1c-2.4-1.8-4-4.7-4-7.9
	C0,4.6,4.6,0,10,0s10,4.6,10,10c0,3.2-1.6,6.1-4,7.9 M7.1,15.2c-0.5,0.4-0.9,1-1,1.7C7.2,17.6,8.6,18,10,18s2.8-0.4,3.9-1.1
	c-0.1-0.7-0.5-1.3-1-1.7c-0.5-0.4-1.2-0.7-1.9-0.7H9C8.3,14.6,7.7,14.8,7.1,15.2z M10,12.6h1c1,0,1.9,0.3,2.8,0.8
	c0.8,0.5,1.5,1.3,1.8,2.2c1.5-1.5,2.4-3.5,2.4-5.6c0-4.3-3.7-8-8-8s-8,3.7-8,8c0,2.2,0.9,4.2,2.4,5.6c0.4-0.9,1-1.7,1.8-2.2
	S8,12.6,9,12.6H10 M6,8c0-2.3,1.7-4,4-4s4,1.7,4,4s-1.7,4-4,4S6,10.3,6,8z M8,8c0,1.2,0.8,2,2,2s2-0.8,2-2s-0.8-2-2-2S8,6.8,8,8z"/>
</svg>
